<svg width="22" height="22" viewBox="0 0 22 22" fill="none" xmlns="http://www.w3.org/2000/svg">
    <path
        d="M10.6658 21.3317C16.5036 21.3317 21.3409 16.5036 21.3409 10.6658C21.3409 4.82798 16.4944 0 10.6565 0C4.82381 0 0 4.82798 0 10.6658C0 16.5036 4.83309 21.3317 10.6658 21.3317ZM10.6658 19.7608C5.63197 19.7608 1.58523 15.709 1.58523 10.6658C1.58523 5.62268 5.62268 1.57082 10.6565 1.57082C15.6996 1.57082 19.7608 5.62268 19.7608 10.6658C19.7608 15.709 15.709 19.7608 10.6658 19.7608ZM17.8649 17.5841L17.8371 17.4787C17.2773 15.9492 14.5091 14.2253 10.6658 14.2253C6.83102 14.2253 4.07206 15.9451 3.50384 17.4662L3.47597 17.5841C5.36805 19.4682 8.48761 20.5904 10.67 20.5904C12.87 20.5904 15.9437 19.4849 17.8649 17.5841ZM10.6658 12.4312C12.6949 12.4498 14.2763 10.717 14.2763 8.45395C14.2763 6.32555 12.6823 4.55747 10.6658 4.55747C8.65862 4.55747 7.05118 6.32555 7.06464 8.45395C7.07393 10.717 8.63681 12.4126 10.6658 12.4312Z"
        fill="#FEFEFE" />
</svg>
    